<svg id="Layer_1" data-name="Layer 1" xmlns="http://www.w3.org/2000/svg" viewBox="0 0 1031.44 578.99"><defs><style>.cls-1{fill:#009bd1;}</style></defs><title>Logo VP</title><path class="cls-1" d="M1484.38,917.79a119.32,119.32,0,0,0-24.11-37.66l-.59-1.25A112.59,112.59,0,0,0,1424,853.46a104.93,104.93,0,0,0-43.47-9.1H1116.43L987.24,1111.1,858.05,844.36H774.7l212.54,439.33,130.7-270.16v270.16h74.42V1081.6h199.45V1081h3.57a92.9,92.9,0,0,0,32.15-9.41q29.16-14.43,47.33-43.31T1493,963.61A121.13,121.13,0,0,0,1484.38,917.79Zm-71.44,67.47a40.69,40.69,0,0,1-16.37,14.75v.63a32.71,32.71,0,0,1-15.48,3.76H1192.36v-81h188.73q10.11,0,16.67,3.76a44.7,44.7,0,0,1,10.12,7.53A55.87,55.87,0,0,1,1415,945.4q4.17,7.54,4.17,18.21A39.17,39.17,0,0,1,1412.94,985.26Z" transform="translate(-618.14 -844.36)"/><path class="cls-1" d="M694.25,1356.76l-38.06,66.5-38.05-66.5h14.92l23.13,40.38,23.13-40.38Z" transform="translate(-618.14 -844.36)"/><path class="cls-1" d="M775.37,1356.76V1390a29.42,29.42,0,0,1-2.93,12.92,33.58,33.58,0,0,1-8,10.59,38.15,38.15,0,0,1-11.88,7.13,41.58,41.58,0,0,1-29,0,38,38,0,0,1-11.88-7.13,33.58,33.58,0,0,1-8-10.59,29.42,29.42,0,0,1-2.93-12.92v-33.25h13.32V1390a19,19,0,0,0,1.87,8.27,21.71,21.71,0,0,0,5.17,6.84,24.32,24.32,0,0,0,7.68,4.6,26.73,26.73,0,0,0,18.6,0,24.48,24.48,0,0,0,7.62-4.6,21.86,21.86,0,0,0,5.17-6.84A19,19,0,0,0,762,1390v-33.25Z" transform="translate(-618.14 -844.36)"/><path class="cls-1" d="M899.34,1362.18a17.8,17.8,0,0,1,4.32,5.7,15.84,15.84,0,0,1,1.55,6.93,16,16,0,0,1-3.26,9.79,19.92,19.92,0,0,1-8.47,6.55,19,19,0,0,1-5.76,1.43h-.64v.09H851.37v30.59H838.05v-66.5h47a21.7,21.7,0,0,1,7.78,1.38,20.39,20.39,0,0,1,6.4,3.85Zm-11.4,18.14a7.11,7.11,0,0,0,2.93-2.23,5.34,5.34,0,0,0,1.12-3.28,4.88,4.88,0,0,0-.75-2.75,8.54,8.54,0,0,0-1.28-1.62,7.9,7.9,0,0,0-1.81-1.14,6.82,6.82,0,0,0-3-.57h-33.8V1381h33.8a6.77,6.77,0,0,0,2.77-.57Z" transform="translate(-618.14 -844.36)"/><path class="cls-1" d="M990.38,1356.76v66.5H977.05v-30.49h-48v30.49H915.76v-66.5h13.32v24.13h48v-24.13Z" transform="translate(-618.14 -844.36)"/><path class="cls-1" d="M1073,1423.26h-14.92l-6.82-11.87-16.31-28.5-16.31,28.5-6.83,11.87H996.88l6.82-11.87,31.24-54.63,31.23,54.63Z" transform="translate(-618.14 -844.36)"/><path class="cls-1" d="M1154,1356.76v66.5h-13.33v-42.37l-13.11,8.93-10.87,7.51-10.88-7.51-13.11-8.93v42.37h-13.32v-66.5l13.32,9.12,24,16.44,24-16.44Z" transform="translate(-618.14 -844.36)"/><path class="cls-1" d="M1273.82,1375.19v-.38a5.54,5.54,0,0,0-2-4.27,7,7,0,0,0-4.8-1.81h-30.27a7,7,0,0,0-4.8,1.81,5.55,5.55,0,0,0-2,4.27v.38a5.57,5.57,0,0,0,2,4.28,7,7,0,0,0,4.8,1.8h26.86a25.24,25.24,0,0,1,9.7,1.85,23.94,23.94,0,0,1,7.67,5,4.36,4.36,0,0,1,.43.43,4.36,4.36,0,0,0,.43.43,22.47,22.47,0,0,1,3.89,6.12,18.71,18.71,0,0,1-.43,15.35,21.56,21.56,0,0,1-5.06,6.65,24.47,24.47,0,0,1-7.46,4.51,25,25,0,0,1-9.17,1.66h-23.35a24.92,24.92,0,0,1-9.16-1.66,24.52,24.52,0,0,1-7.47-4.51,21.56,21.56,0,0,1-5.06-6.65,18.37,18.37,0,0,1-1.86-8.17H1230a8.35,8.35,0,0,0,3,6.46,10.53,10.53,0,0,0,7.25,2.66h23.35a11.23,11.23,0,0,0,7.3-2.66,8.85,8.85,0,0,0,2.24-2.9,8.34,8.34,0,0,0,0-7.13,8.81,8.81,0,0,0-2.24-2.89,10.91,10.91,0,0,0-3.3-2,11,11,0,0,0-4-.71h-26.86a21.82,21.82,0,0,1-7.63-1.33,21,21,0,0,1-6.34-3.71,26.57,26.57,0,0,1-2.56-2.85,16,16,0,0,1-3.51-10.16v-.38a15.84,15.84,0,0,1,1.59-7,18.55,18.55,0,0,1,4.32-5.7,21.23,21.23,0,0,1,14.13-5.27H1267a21.56,21.56,0,0,1,7.84,1.43,20.85,20.85,0,0,1,6.39,3.84,18.55,18.55,0,0,1,4.32,5.7,15.71,15.71,0,0,1,1.6,7v.38Z" transform="translate(-618.14 -844.36)"/><path class="cls-1" d="M1372.32,1356.86v11.87h-30.59v54.63H1328.4v-54.63h-30.59v-11.87Z" transform="translate(-618.14 -844.36)"/><path class="cls-1" d="M1457.7,1356.76V1390a29.28,29.28,0,0,1-2.93,12.92,33.55,33.55,0,0,1-8,10.59,38.19,38.19,0,0,1-11.89,7.13,41.56,41.56,0,0,1-29,0,38.19,38.19,0,0,1-11.89-7.13,33.55,33.55,0,0,1-8-10.59,29.28,29.28,0,0,1-2.93-12.92v-33.25h13.32V1390a18.85,18.85,0,0,0,1.87,8.27,21.57,21.57,0,0,0,5.17,6.84,24.38,24.38,0,0,0,7.67,4.6,26.73,26.73,0,0,0,18.6,0,24.48,24.48,0,0,0,7.62-4.6,21.57,21.57,0,0,0,5.17-6.84,18.85,18.85,0,0,0,1.87-8.27v-33.25Z" transform="translate(-618.14 -844.36)"/><path class="cls-1" d="M1505.57,1356.86a40.18,40.18,0,0,1,14.49,2.61,38.66,38.66,0,0,1,11.89,7.08,33,33,0,0,1,8,10.54,30,30,0,0,1,.58,24.56,33.05,33.05,0,0,1-6.5,9.83c-.36.32-.71.65-1.07,1s-.71.68-1.06,1a38.63,38.63,0,0,1-11.84,7.17,39.33,39.33,0,0,1-14.39,2.61h-37.31v-66.5Zm-24,54.62h24a25.63,25.63,0,0,0,9.32-1.66,24.86,24.86,0,0,0,7.63-4.61,21.64,21.64,0,0,0,5.17-6.84,19.4,19.4,0,0,0,0-16.58,21.9,21.9,0,0,0-5.17-6.79,24.86,24.86,0,0,0-7.63-4.61,25.84,25.84,0,0,0-9.32-1.66h-24Z" transform="translate(-618.14 -844.36)"/><path class="cls-1" d="M1553.64,1423.26v-66.5H1567v66.5Z" transform="translate(-618.14 -844.36)"/><path class="cls-1" d="M1612.27,1356.76a40.23,40.23,0,0,1,14.5,2.61,38.22,38.22,0,0,1,11.88,7.13,33.69,33.69,0,0,1,8,10.59,30,30,0,0,1,0,25.84,33.58,33.58,0,0,1-8,10.59,38,38,0,0,1-11.88,7.13,41.58,41.58,0,0,1-29,0,38,38,0,0,1-11.88-7.13,33.58,33.58,0,0,1-8-10.59,30,30,0,0,1,0-25.84,33.69,33.69,0,0,1,8-10.59,38.22,38.22,0,0,1,11.88-7.13A40.23,40.23,0,0,1,1612.27,1356.76Zm0,54.63a25.72,25.72,0,0,0,9.33-1.67,24.48,24.48,0,0,0,7.62-4.6,21.71,21.71,0,0,0,5.17-6.84,19.31,19.31,0,0,0,0-16.58,21.63,21.63,0,0,0-5.17-6.79,24.51,24.51,0,0,0-7.62-4.61,26.88,26.88,0,0,0-18.6,0,24.34,24.34,0,0,0-7.68,4.61,21.63,21.63,0,0,0-5.17,6.79,19.4,19.4,0,0,0,0,16.58,21.71,21.71,0,0,0,5.17,6.84,24.32,24.32,0,0,0,7.68,4.6A25.79,25.79,0,0,0,1612.27,1411.39Z" transform="translate(-618.14 -844.36)"/></svg>